<?xml version="1.0" encoding="utf-8"?>
<svg viewBox="31 3 921 190" xmlns="http://www.w3.org/2000/svg" xmlns:bx="https://boxy-svg.com">
  <defs>
    <style bx:fonts="Source Sans 3">@import url(https://fonts.googleapis.com/css2?family=Source+Sans+3%3Aital%2Cwght%400%2C200%3B0%2C300%3B0%2C400%3B0%2C500%3B0%2C600%3B0%2C700%3B0%2C800%3B0%2C900%3B1%2C200%3B1%2C300%3B1%2C400%3B1%2C500%3B1%2C600%3B1%2C700%3B1%2C800%3B1%2C900&amp;display=swap);</style>
  </defs>
  <path d="M 59.505 4.204 C 50.400 29.459, 59.710 52.283, 80.101 54.698 C 90.985 55.987, 96.152 43.089, 89.776 30.547 C 85.561 22.254, 60.774 0.684, 59.505 4.204 M 63.410 15.145 C 61.718 17.883, 62.615 32.441, 64.726 36.500 C 71.537 49.602, 86 52.159, 86 40.262 C 86 32.481, 66.260 10.534, 63.410 15.145 M 120.197 21.589 C 112.928 25.211, 105.883 33.533, 100.224 45.181 C 95.669 54.556, 95.335 54.961, 90.905 56.481 C 85.168 58.450, 80.460 61.878, 77.198 66.461 C 74.233 70.629, 73.426 70.832, 72.617 67.611 C 71.134 61.702, 61.946 57.037, 54.529 58.428 C 41.075 60.953, 37.362 81.772, 49.234 88.125 C 51.310 89.236, 51.192 89.370, 47.080 90.584 C 28.987 95.927, 26.593 121.445, 43.291 130.981 C 46.119 132.596, 47.713 134.059, 47.075 134.454 C 42.960 136.997, 40.641 149.259, 43.060 155.685 C 50.448 175.317, 82 170.169, 82 149.331 C 82 145.793, 82 145.793, 85.535 148.896 C 87.479 150.603, 89.504 152, 90.035 152 C 91.885 152, 90.973 153.514, 87.927 155.500 C 71.778 166.030, 80.038 192.286, 99.500 192.286 C 120.365 192.286, 127.466 165.181, 109.500 154.116 C 108.007 153.196, 107.842 152.743, 108.847 152.326 C 109.588 152.020, 111.725 150.424, 113.597 148.781 C 117 145.793, 117 145.793, 117 148.929 C 117 165.996, 138.730 174.403, 151.293 162.195 C 158.550 155.144, 159.473 143.281, 153.333 135.984 C 150.950 133.152, 150.950 133.152, 155.934 130.440 C 172.185 121.595, 169.538 94.352, 152.054 90.512 C 148.883 89.815, 148.883 89.815, 152.405 86.395 C 166.214 72.984, 151.119 51.535, 134.006 60.250 C 130.993 61.784, 128.921 63.782, 127.494 66.529 C 125.400 70.558, 125.400 70.558, 122.729 66.806 C 119.199 61.849, 112.631 57.188, 107.273 55.839 C 102.257 54.575, 102.254 54.046, 107.222 45 C 114.062 32.542, 121.377 26.224, 130.206 25.146 C 135.050 24.555, 135.527 24.266, 135.816 21.750 C 136.267 17.836, 127.902 17.750, 120.197 21.589 M 94.345 62.126 C 84.850 64.307, 77.265 75.004, 78.214 84.876 C 80.319 106.784, 109.159 112.213, 119.217 92.595 C 127.413 76.610, 112.235 58.016, 94.345 62.126 M 52.360 66.460 C 44.831 71.734, 48.721 84, 57.924 84 C 67.019 84, 71.016 73.926, 64.505 67.414 C 61.692 64.601, 55.688 64.129, 52.360 66.460 M 134.923 67.923 C 128.789 74.058, 133.033 84, 141.787 84 C 150.396 84, 154.265 74.111, 148.077 67.923 C 144.043 63.889, 138.957 63.889, 134.923 67.923 M 128 85.366 C 128 93.172, 120.348 104.153, 112.015 108.305 C 107.051 110.779, 107.051 110.779, 110.066 112.027 C 116.204 114.570, 122 124.002, 122 131.448 C 122 134.099, 124.331 133.489, 129.850 129.393 C 130.043 129.250, 128.840 127.415, 127.178 125.316 C 119.027 115.027, 121.565 100.037, 132.647 93.009 C 136.460 90.591, 136.832 90.082, 135.171 89.554 C 134.100 89.214, 132.048 87.847, 130.611 86.516 C 129.103 85.117, 128 84.632, 128 85.366 M 69.446 86.088 C 69.065 86.704, 66.988 87.998, 64.831 88.964 C 60.910 90.720, 60.910 90.720, 63.989 91.996 C 76.153 97.034, 80.096 114.318, 71.618 125.434 C 69.067 128.779, 69.067 128.779, 72.855 131.285 C 76.643 133.792, 76.643 133.792, 77.824 128.073 C 79.131 121.744, 83.947 115.113, 89.214 112.389 C 92.228 110.831, 92.228 110.831, 87.364 108.538 C 79.500 104.831, 72.090 95.060, 72.022 88.309 C 71.997 85.775, 70.459 84.449, 69.446 86.088 M 46.411 97.891 C 36.853 103.720, 35.467 115.214, 43.397 122.900 C 53.471 132.664, 70 125.572, 70 111.485 C 70 100.092, 56.017 92.034, 46.411 97.891 M 136.990 98.250 C 119.633 110.063, 135.415 136.177, 153.250 125.155 C 166.588 116.911, 160.670 96, 145 96 C 141.768 96, 139.261 96.704, 136.990 98.250 M 92.024 118.185 C 80.838 125.788, 81.344 139.784, 93.020 145.750 C 110.194 154.525, 124.439 130.042, 108.791 118.644 C 104.476 115.501, 96.302 115.277, 92.024 118.185 M 53.549 138.091 C 45.870 144.833, 47.177 155.937, 56.198 160.602 C 64.653 164.975, 76 158.136, 76 148.667 C 76 137.122, 62.107 130.577, 53.549 138.091 M 130.299 136.960 C 118.817 143.960, 124.005 162, 137.500 162 C 145.495 162, 150.990 156.150, 150.996 147.632 C 151.004 137.442, 139.357 131.436, 130.299 136.960 M 92.190 161.026 C 83.808 166.136, 84.311 179.480, 93.062 184.173 C 107.704 192.026, 120.930 173.048, 108.451 162.091 C 104.098 158.269, 97.428 157.832, 92.190 161.026" stroke="none" fill-rule="evenodd" style="fill: rgb(232, 27, 142);"/>
  <text style="fill: rgb(232, 27, 142); font-family: &quot;Source Sans 3&quot;; font-size: 167.4px; font-weight: 600; white-space: pre;" x="214.712" y="160.372">linkberree</text>
</svg>